<svg width="1080" height="1080" viewBox="0 0 1080 1080" fill="none" xmlns="http://www.w3.org/2000/svg">
<circle cx="540" cy="540" r="189.898" fill="url(#paint0_radial)"/>
<path d="M672.747 948.067C630.947 961.655 586.331 969 540 969C303.07 969 111 776.93 111 540C111 303.07 303.07 111 540 111C776.93 111 969 303.07 969 540C969 642.352 933.157 736.332 873.337 810.073C865.32 775.653 843.703 746.456 814.457 728.454C851.32 674.871 872.898 609.955 872.898 540C872.898 356.146 723.854 207.102 540 207.102C356.146 207.102 207.102 356.146 207.102 540C207.102 723.854 356.146 872.898 540 872.898C566.697 872.898 592.66 869.755 617.539 863.82C624.021 898.77 644.409 928.838 672.747 948.067Z" fill="url(#paint1_linear)"/>
<circle cx="746.043" cy="839.839" r="112.247" fill="url(#paint2_radial)"/>
<defs>
<radialGradient id="paint0_radial" cx="0" cy="0" r="1" gradientUnits="userSpaceOnUse" gradientTransform="translate(573.828 506.172) rotate(141.51) scale(182.206)">
<stop stop-color="#0492EA"/>
<stop offset="1" stop-color="#0430AB"/>
</radialGradient>
<linearGradient id="paint1_linear" x1="111" y1="111" x2="969" y2="969" gradientUnits="userSpaceOnUse">
<stop stop-color="#0430AB"/>
<stop offset="1" stop-color="#0492EA"/>
</linearGradient>
<radialGradient id="paint2_radial" cx="0" cy="0" r="1" gradientUnits="userSpaceOnUse" gradientTransform="translate(766.038 819.843) rotate(141.51) scale(107.7)">
<stop stop-color="#0492EA"/>
<stop offset="1" stop-color="#0430AB"/>
</radialGradient>
</defs>
</svg>
